<?xml version="1.0" encoding="UTF-8" standalone="no"?>
<svg
   version="1.1"
   id="Layer_1"
   x="0px"
   y="0px"
   width="302500"
   viewBox="0 0 302500 302500"
   enable-background="new 0 0 550 550"
   xml:space="preserve"
   height="302500"
   xmlns="http://www.w3.org/2000/svg"
   xmlns:svg="http://www.w3.org/2000/svg"><defs
   id="defs11" />

<path
   fill="#030303"
   opacity="1"
   stroke="none"
   d="M 373.2525,531.76263 C 302.54901,427.15442 232.05096,322.84311 161.35217,218.23473 c 1.51422,-1.12508 2.77245,-2.14734 4.11435,-3.04447 61.53166,-41.13621 123.05527,-82.28458 184.65534,-123.318121 3.00039,-1.99865 4.06036,-4.051819 3.97155,-7.635963 -0.582,-23.485417 -0.91815,-46.976941 -1.32806,-70.466586 -0.0283,-1.619885 -0.004,-3.240691 -0.004,-5.068826 13.50464,0 26.59686,0 40.26605,0 -3.21646,178.797756 -6.43036,357.450176 -9.64423,536.102586 -0.32715,0.14117 -0.65432,0.2824 -0.9815,0.42358 -2.98133,-4.38916 -5.96265,-8.77826 -9.14945,-13.4643 M 258.95377,314.53073 c 35.52664,55.65921 71.05328,111.31842 106.57995,166.97763 0.36102,-0.16278 0.72205,-0.32556 1.08307,-0.48834 -3.96283,-117.9729 -7.92566,-235.94579 -11.92291,-354.94328 -52.22589,31.83622 -103.75688,63.24885 -155.50772,94.7955 20.029,31.388 39.70236,62.21864 59.76761,93.65849 z"
   id="path4"
   style="display:inline" />

</svg>
